<svg viewBox="0 0 130 130" baseProfile="full" version="1.1" xmlns="http://www.w3.org/2000/svg" xmlns:ev="http://www.w3.org/2001/xml-events" xmlns:xlink="http://www.w3.org/1999/xlink"><defs /><polyline clip-path="url(#border_clip)" fill="none" points="39.543398531623275,91.67458739275844 32.353701759944826,96.81229480278287 30.645749145789097,108.95526791174672 38.12418006419413,122.06785543268978 53.04075468404994,129.2531886849016 69.22695525664523,126.92616788493304 79.8069534353385,116.98040774145949 81.33899496145405,105.63477944761911 75.87338709823582,99.65926934759958 69.67903834837746,102.26951632596658 69.41131184037826,111.18033525613848 78.04601595968064,119.99889223057255 93.04620826000364,122.1123801050772 107.87408567551728,114.71188393901349 115.93113834427825,100.51148740193895 114.5367782900482,86.1196808327237 106.53229938125276,78.05077576870673 98.53744828272089,78.79554817589403 96.9173462833824,85.33438428238671 103.90634924047974,90.99459482980114 116.24021148818372,89.52501948367285 127.12638968299694,78.91605086217764" stroke="black" stroke-linecap="round" stroke-width="1" /><polyline clip-path="url(#border_clip)" fill="none" points="130.5,65.5 130.5,65.5 125.70080890410878,49.74798780416575 114.06533605754274,40.57292941462436 102.2059187231616,40.59204195866576 96.57862806322296,46.90469503598118 99.57447378156445,52.88076049940877 108.07926549707561,52.21034546278584 115.37559754187816,42.75811520620027 115.23310924873117,27.88395738226648 105.70576813151706,14.428636560888549 90.3326147862778,8.586077060254453 76.01341086035406,12.165874103551786 68.84756988692178,21.512947419983384 70.46017756982093,29.739487765425153 77.04343010229331,30.915179437846746 81.69466946437254,23.673844439803773 78.63251237039708,12.04867247140163 66.73333517202093,3.029332254529109 50.24263492213923,2.3227518078510982 36.22946691165856,10.889015282822363 30.327765967792104,24.353678408691955 33.347515958836716,35.65303717127892 40.81110046102139,39.30784727779235 45.69580152178034,34.73322372224237 42.71861942339072,26.57711704014396 31.56405014985407,21.88221403388775 17.09666244398789,25.793002897768268 6.429316275435049,38.41224861348455 4.625212208589218,54.713927739026445 11.640684841575222,67.56568226721909 22.363060280032812,72.027675027106 29.720500198558646,68.32049376990622 28.977357236705927,61.66209825724809 20.60948010002363,59.07300828977198 10.015319647801562,65.08795917658088 4.238077640756657,78.97557455986325 7.687230940989963,95.1528616800515 19.454758762836043,106.54339305103258 33.85410386871859,108.84243023532582 43.85505930247704,103.10209606363682 45.33116936441701,95.06872454677094 39.543398531623275,91.67458739275844" stroke="black" stroke-linecap="round" stroke-width="1" /></svg>